<?xml version="1.0" encoding="UTF-8" standalone="no"?>
<!-- Generator: Adobe Illustrator 19.0.0, SVG Export Plug-In . SVG Version: 6.00 Build 0)  -->

<svg
   xmlns:dc="http://purl.org/dc/elements/1.1/"
   xmlns:cc="http://creativecommons.org/ns#"
   xmlns:rdf="http://www.w3.org/1999/02/22-rdf-syntax-ns#"
   xmlns:svg="http://www.w3.org/2000/svg"
   xmlns="http://www.w3.org/2000/svg"
   xmlns:sodipodi="http://sodipodi.sourceforge.net/DTD/sodipodi-0.dtd"
   xmlns:inkscape="http://www.inkscape.org/namespaces/inkscape"
   version="1.1"
   id="Capa_1"
   x="0px"
   y="0px"
   viewBox="0 0 456.5 456.5"
   style="enable-background:new 0 0 456.5 456.5;"
   xml:space="preserve"
   sodipodi:docname="corcovado.svg"
   inkscape:version="0.92.2 (5c3e80d, 2017-08-06)"><metadata
     id="metadata39"><rdf:RDF><cc:Work
         rdf:about=""><dc:format>image/svg+xml</dc:format><dc:type
           rdf:resource="http://purl.org/dc/dcmitype/StillImage" /><dc:title></dc:title></cc:Work></rdf:RDF></metadata><defs
     id="defs37" /><sodipodi:namedview
     pagecolor="#ffffff"
     bordercolor="#666666"
     borderopacity="1"
     objecttolerance="10"
     gridtolerance="10"
     guidetolerance="10"
     inkscape:pageopacity="0"
     inkscape:pageshadow="2"
     inkscape:window-width="1920"
     inkscape:window-height="1027"
     id="namedview35"
     showgrid="false"
     inkscape:zoom="0.516977"
     inkscape:cx="228.25"
     inkscape:cy="228.25"
     inkscape:window-x="1913"
     inkscape:window-y="-7"
     inkscape:window-maximized="1"
     inkscape:current-layer="Capa_1" /><path
     d="M396.708,63.833h-24.25H259.875V31.75c0-17.507-14.243-31.75-31.75-31.75s-31.75,14.243-31.75,31.75v32.083h-32.531  c-0.006,0-0.012,0-0.018,0H84.042h-24.25c-4.418,0-8,3.582-8,8c0,4.418,3.582,8,8,8h20.421l30.348,37.685  c1.519,1.886,3.809,2.982,6.23,2.982h55.458v248.083h-15.949c-4.418,0-8,3.582-8,8v63.92c-4.384,0.04-7.926,3.603-7.926,7.996  c0,4.418,3.582,8,8,8h159.75c4.418,0,8-3.582,8-8c0-4.393-3.542-7.956-7.926-7.996v-63.92c0-4.418-3.582-8-8-8H284.25V120.5h55.458  c2.421,0,4.712-1.096,6.23-2.982l30.348-37.685h20.421c4.418,0,8-3.582,8-8C404.708,67.415,401.126,63.833,396.708,63.833z   M204.375,79.833c4.418,0,8-3.582,8-8V31.75c0-8.685,7.065-15.75,15.75-15.75s15.75,7.065,15.75,15.75v40.083v31.7  c-22.019-2.01-44.285-11.916-59.946-23.7H204.375z M188.25,253.235l8.875,4.468v110.88h-8.875V253.235z M236.25,368.583v-91.182  l7.625,3.839v87.343H236.25z M220.25,368.583h-7.125V265.758l7.125,3.587V368.583z M292.199,440.5H164.301v-55.917h127.898V440.5z   M259.875,368.583v-79.288l8.375,4.217v75.071H259.875z M335.879,104.5H276.25c-4.418,0-8,3.582-8,8v163.099l-80-40.278V112.5  c0-4.418-3.582-8-8-8h-59.629l-19.865-24.667h59.388c16.791,18.496,49.793,37.144,83.732,39.761V248.75c0,4.418,3.582,8,8,8  s8-3.582,8-8V79.833h95.869L335.879,104.5z"
     id="path2"
     style="fill:#ffffff" /><g
     id="g4" /><g
     id="g6" /><g
     id="g8" /><g
     id="g10" /><g
     id="g12" /><g
     id="g14" /><g
     id="g16" /><g
     id="g18" /><g
     id="g20" /><g
     id="g22" /><g
     id="g24" /><g
     id="g26" /><g
     id="g28" /><g
     id="g30" /><g
     id="g32" /></svg>